<mxfile host="app.diagrams.net" modified="2023-06-08T04:35:55.442Z" agent="Mozilla/5.0 (Windows NT 10.0; Win64; x64) AppleWebKit/537.36 (KHTML, like Gecko) Chrome/112.0.0.0 YaBrowser/23.5.1.714 Yowser/2.5 Safari/537.36" etag="F6H7r7irH-Y3YnNW-hIb" version="21.3.7" type="device">
  <diagram id="C5RBs43oDa-KdzZeNtuy" name="Page-1">
    <mxGraphModel dx="880" dy="455" grid="1" gridSize="10" guides="1" tooltips="1" connect="1" arrows="1" fold="1" page="1" pageScale="1" pageWidth="827" pageHeight="1169" math="0" shadow="0">
      <root>
        <mxCell id="WIyWlLk6GJQsqaUBKTNV-0" />
        <mxCell id="WIyWlLk6GJQsqaUBKTNV-1" parent="WIyWlLk6GJQsqaUBKTNV-0" />
        <mxCell id="0jioDBSxinuSy6Dj_WKI-5" style="edgeStyle=orthogonalEdgeStyle;rounded=0;orthogonalLoop=1;jettySize=auto;html=1;exitX=0.5;exitY=1;exitDx=0;exitDy=0;entryX=0.5;entryY=0;entryDx=0;entryDy=0;" parent="WIyWlLk6GJQsqaUBKTNV-1" source="0jioDBSxinuSy6Dj_WKI-1" target="0jioDBSxinuSy6Dj_WKI-2" edge="1">
          <mxGeometry relative="1" as="geometry" />
        </mxCell>
        <mxCell id="0jioDBSxinuSy6Dj_WKI-1" value="Начало" style="ellipse;whiteSpace=wrap;html=1;" parent="WIyWlLk6GJQsqaUBKTNV-1" vertex="1">
          <mxGeometry x="125" y="20" width="120" height="80" as="geometry" />
        </mxCell>
        <mxCell id="0jioDBSxinuSy6Dj_WKI-6" style="edgeStyle=orthogonalEdgeStyle;rounded=0;orthogonalLoop=1;jettySize=auto;html=1;exitX=0.5;exitY=1;exitDx=0;exitDy=0;entryX=0.5;entryY=0;entryDx=0;entryDy=0;" parent="WIyWlLk6GJQsqaUBKTNV-1" source="0jioDBSxinuSy6Dj_WKI-2" target="0jioDBSxinuSy6Dj_WKI-3" edge="1">
          <mxGeometry relative="1" as="geometry" />
        </mxCell>
        <mxCell id="0jioDBSxinuSy6Dj_WKI-2" value="Инициализация периферии(GPIO, тактирование, таймеры, SPI)" style="rounded=0;whiteSpace=wrap;html=1;" parent="WIyWlLk6GJQsqaUBKTNV-1" vertex="1">
          <mxGeometry x="90" y="120" width="185" height="60" as="geometry" />
        </mxCell>
        <mxCell id="pyjn3Dc_uKsliZO7ZJGd-1" value="" style="edgeStyle=orthogonalEdgeStyle;rounded=0;orthogonalLoop=1;jettySize=auto;html=1;" parent="WIyWlLk6GJQsqaUBKTNV-1" source="0jioDBSxinuSy6Dj_WKI-3" target="pyjn3Dc_uKsliZO7ZJGd-0" edge="1">
          <mxGeometry relative="1" as="geometry" />
        </mxCell>
        <mxCell id="0jioDBSxinuSy6Dj_WKI-3" value="настройка и инициализация ADS1293 &lt;br&gt;и w25Q128" style="rounded=0;whiteSpace=wrap;html=1;" parent="WIyWlLk6GJQsqaUBKTNV-1" vertex="1">
          <mxGeometry x="76.5" y="200" width="225" height="60" as="geometry" />
        </mxCell>
        <mxCell id="l1M4cIT7hZX_P5jJNtjx-0" style="edgeStyle=orthogonalEdgeStyle;rounded=0;orthogonalLoop=1;jettySize=auto;html=1;exitX=0.5;exitY=1;exitDx=0;exitDy=0;entryX=0.5;entryY=0;entryDx=0;entryDy=0;" parent="WIyWlLk6GJQsqaUBKTNV-1" source="l1M4cIT7hZX_P5jJNtjx-1" target="l1M4cIT7hZX_P5jJNtjx-3" edge="1">
          <mxGeometry relative="1" as="geometry" />
        </mxCell>
        <mxCell id="l1M4cIT7hZX_P5jJNtjx-1" value="Начало прерывания&lt;br&gt;по таймеру" style="ellipse;whiteSpace=wrap;html=1;" parent="WIyWlLk6GJQsqaUBKTNV-1" vertex="1">
          <mxGeometry x="462.5" y="10" width="165" height="60" as="geometry" />
        </mxCell>
        <mxCell id="l1M4cIT7hZX_P5jJNtjx-2" style="edgeStyle=orthogonalEdgeStyle;rounded=0;orthogonalLoop=1;jettySize=auto;html=1;exitX=0.5;exitY=1;exitDx=0;exitDy=0;entryX=0.5;entryY=0;entryDx=0;entryDy=0;" parent="WIyWlLk6GJQsqaUBKTNV-1" source="l1M4cIT7hZX_P5jJNtjx-3" target="l1M4cIT7hZX_P5jJNtjx-4" edge="1">
          <mxGeometry relative="1" as="geometry">
            <mxPoint x="545" y="180" as="targetPoint" />
          </mxGeometry>
        </mxCell>
        <mxCell id="l1M4cIT7hZX_P5jJNtjx-3" value="Запускаем передачу по Bluetooth" style="rounded=0;whiteSpace=wrap;html=1;" parent="WIyWlLk6GJQsqaUBKTNV-1" vertex="1">
          <mxGeometry x="485" y="100" width="120" height="60" as="geometry" />
        </mxCell>
        <mxCell id="l1M4cIT7hZX_P5jJNtjx-7" value="" style="edgeStyle=orthogonalEdgeStyle;rounded=0;orthogonalLoop=1;jettySize=auto;html=1;" parent="WIyWlLk6GJQsqaUBKTNV-1" source="l1M4cIT7hZX_P5jJNtjx-4" target="l1M4cIT7hZX_P5jJNtjx-6" edge="1">
          <mxGeometry relative="1" as="geometry" />
        </mxCell>
        <mxCell id="l1M4cIT7hZX_P5jJNtjx-4" value="Сброс значения счетчика" style="whiteSpace=wrap;html=1;rounded=0;" parent="WIyWlLk6GJQsqaUBKTNV-1" vertex="1">
          <mxGeometry x="485" y="200" width="120" height="60" as="geometry" />
        </mxCell>
        <mxCell id="l1M4cIT7hZX_P5jJNtjx-9" value="" style="edgeStyle=orthogonalEdgeStyle;rounded=0;orthogonalLoop=1;jettySize=auto;html=1;" parent="WIyWlLk6GJQsqaUBKTNV-1" source="l1M4cIT7hZX_P5jJNtjx-6" target="l1M4cIT7hZX_P5jJNtjx-8" edge="1">
          <mxGeometry relative="1" as="geometry" />
        </mxCell>
        <mxCell id="l1M4cIT7hZX_P5jJNtjx-6" value="сброс флага переполнения счетчика" style="whiteSpace=wrap;html=1;rounded=0;" parent="WIyWlLk6GJQsqaUBKTNV-1" vertex="1">
          <mxGeometry x="485" y="290" width="120" height="60" as="geometry" />
        </mxCell>
        <mxCell id="l1M4cIT7hZX_P5jJNtjx-8" value="конец прерывания по таймеру" style="ellipse;whiteSpace=wrap;html=1;rounded=0;" parent="WIyWlLk6GJQsqaUBKTNV-1" vertex="1">
          <mxGeometry x="470" y="380" width="150" height="80" as="geometry" />
        </mxCell>
        <mxCell id="l1M4cIT7hZX_P5jJNtjx-10" style="edgeStyle=orthogonalEdgeStyle;rounded=0;orthogonalLoop=1;jettySize=auto;html=1;exitX=0.5;exitY=1;exitDx=0;exitDy=0;entryX=0.5;entryY=0;entryDx=0;entryDy=0;" parent="WIyWlLk6GJQsqaUBKTNV-1" source="l1M4cIT7hZX_P5jJNtjx-11" target="l1M4cIT7hZX_P5jJNtjx-13" edge="1">
          <mxGeometry relative="1" as="geometry" />
        </mxCell>
        <mxCell id="l1M4cIT7hZX_P5jJNtjx-11" value="Начало прерывания&lt;br&gt;по внешнему событию" style="ellipse;whiteSpace=wrap;html=1;" parent="WIyWlLk6GJQsqaUBKTNV-1" vertex="1">
          <mxGeometry x="677.5" width="135" height="80" as="geometry" />
        </mxCell>
        <mxCell id="l1M4cIT7hZX_P5jJNtjx-12" style="edgeStyle=orthogonalEdgeStyle;rounded=0;orthogonalLoop=1;jettySize=auto;html=1;exitX=0.5;exitY=1;exitDx=0;exitDy=0;entryX=0.5;entryY=0;entryDx=0;entryDy=0;" parent="WIyWlLk6GJQsqaUBKTNV-1" source="l1M4cIT7hZX_P5jJNtjx-49" target="l1M4cIT7hZX_P5jJNtjx-18" edge="1">
          <mxGeometry relative="1" as="geometry">
            <mxPoint x="745" y="290.0000000000001" as="targetPoint" />
          </mxGeometry>
        </mxCell>
        <mxCell id="l1M4cIT7hZX_P5jJNtjx-13" value="data_flg=true" style="rounded=0;whiteSpace=wrap;html=1;" parent="WIyWlLk6GJQsqaUBKTNV-1" vertex="1">
          <mxGeometry x="685" y="100" width="120" height="60" as="geometry" />
        </mxCell>
        <mxCell id="l1M4cIT7hZX_P5jJNtjx-18" value="конец прерывания по внешнему событию" style="ellipse;whiteSpace=wrap;html=1;rounded=0;" parent="WIyWlLk6GJQsqaUBKTNV-1" vertex="1">
          <mxGeometry x="670" y="275" width="150" height="80" as="geometry" />
        </mxCell>
        <mxCell id="7e3wXyab55AdMNmQCwJl-5" value="" style="edgeStyle=orthogonalEdgeStyle;rounded=0;orthogonalLoop=1;jettySize=auto;html=1;" edge="1" parent="WIyWlLk6GJQsqaUBKTNV-1" source="l1M4cIT7hZX_P5jJNtjx-33">
          <mxGeometry relative="1" as="geometry">
            <mxPoint x="189" y="365" as="targetPoint" />
            <Array as="points">
              <mxPoint x="370" y="420" />
              <mxPoint x="370" y="365" />
            </Array>
          </mxGeometry>
        </mxCell>
        <mxCell id="l1M4cIT7hZX_P5jJNtjx-33" value="Данные готовы?&lt;br style=&quot;border-color: var(--border-color);&quot;&gt;data_flg==true?" style="rhombus;whiteSpace=wrap;html=1;" parent="WIyWlLk6GJQsqaUBKTNV-1" vertex="1">
          <mxGeometry x="79.5" y="380" width="219" height="80" as="geometry" />
        </mxCell>
        <mxCell id="l1M4cIT7hZX_P5jJNtjx-35" value="да" style="text;html=1;align=center;verticalAlign=middle;resizable=0;points=[];autosize=1;strokeColor=none;fillColor=none;" parent="WIyWlLk6GJQsqaUBKTNV-1" vertex="1">
          <mxGeometry x="50" y="390" width="40" height="30" as="geometry" />
        </mxCell>
        <mxCell id="l1M4cIT7hZX_P5jJNtjx-36" value="нет" style="text;html=1;align=center;verticalAlign=middle;resizable=0;points=[];autosize=1;strokeColor=none;fillColor=none;" parent="WIyWlLk6GJQsqaUBKTNV-1" vertex="1">
          <mxGeometry x="290" y="380" width="40" height="30" as="geometry" />
        </mxCell>
        <mxCell id="l1M4cIT7hZX_P5jJNtjx-50" value="" style="edgeStyle=orthogonalEdgeStyle;rounded=0;orthogonalLoop=1;jettySize=auto;html=1;exitX=0.5;exitY=1;exitDx=0;exitDy=0;entryX=0.5;entryY=0;entryDx=0;entryDy=0;" parent="WIyWlLk6GJQsqaUBKTNV-1" source="l1M4cIT7hZX_P5jJNtjx-13" target="l1M4cIT7hZX_P5jJNtjx-49" edge="1">
          <mxGeometry relative="1" as="geometry">
            <mxPoint x="745" y="275" as="targetPoint" />
            <mxPoint x="745" y="160" as="sourcePoint" />
          </mxGeometry>
        </mxCell>
        <mxCell id="l1M4cIT7hZX_P5jJNtjx-49" value="сброс флага прерывания" style="rounded=0;whiteSpace=wrap;html=1;" parent="WIyWlLk6GJQsqaUBKTNV-1" vertex="1">
          <mxGeometry x="685" y="180" width="120" height="60" as="geometry" />
        </mxCell>
        <mxCell id="7e3wXyab55AdMNmQCwJl-4" value="" style="edgeStyle=orthogonalEdgeStyle;rounded=0;orthogonalLoop=1;jettySize=auto;html=1;" edge="1" parent="WIyWlLk6GJQsqaUBKTNV-1" source="pyjn3Dc_uKsliZO7ZJGd-0">
          <mxGeometry relative="1" as="geometry">
            <mxPoint x="189" y="380" as="targetPoint" />
          </mxGeometry>
        </mxCell>
        <mxCell id="pyjn3Dc_uKsliZO7ZJGd-0" value="Включение радиомодуля и BLE" style="whiteSpace=wrap;html=1;rounded=0;" parent="WIyWlLk6GJQsqaUBKTNV-1" vertex="1">
          <mxGeometry x="98.5" y="290" width="181" height="60" as="geometry" />
        </mxCell>
        <mxCell id="7e3wXyab55AdMNmQCwJl-6" value="" style="edgeStyle=orthogonalEdgeStyle;rounded=0;orthogonalLoop=1;jettySize=auto;html=1;exitX=0;exitY=0.5;exitDx=0;exitDy=0;" edge="1" parent="WIyWlLk6GJQsqaUBKTNV-1" source="l1M4cIT7hZX_P5jJNtjx-33" target="l1M4cIT7hZX_P5jJNtjx-26">
          <mxGeometry relative="1" as="geometry">
            <mxPoint x="190" y="580" as="targetPoint" />
            <Array as="points" />
            <mxPoint x="80" y="420" as="sourcePoint" />
          </mxGeometry>
        </mxCell>
        <mxCell id="7e3wXyab55AdMNmQCwJl-8" value="" style="edgeStyle=orthogonalEdgeStyle;rounded=0;orthogonalLoop=1;jettySize=auto;html=1;" edge="1" parent="WIyWlLk6GJQsqaUBKTNV-1" source="l1M4cIT7hZX_P5jJNtjx-26" target="7e3wXyab55AdMNmQCwJl-7">
          <mxGeometry relative="1" as="geometry" />
        </mxCell>
        <mxCell id="l1M4cIT7hZX_P5jJNtjx-26" value="Чтение результатов преобразования" style="whiteSpace=wrap;html=1;" parent="WIyWlLk6GJQsqaUBKTNV-1" vertex="1">
          <mxGeometry x="129" y="540" width="120" height="60" as="geometry" />
        </mxCell>
        <mxCell id="7e3wXyab55AdMNmQCwJl-9" style="edgeStyle=orthogonalEdgeStyle;rounded=0;orthogonalLoop=1;jettySize=auto;html=1;exitX=0.5;exitY=1;exitDx=0;exitDy=0;" edge="1" parent="WIyWlLk6GJQsqaUBKTNV-1" source="7e3wXyab55AdMNmQCwJl-7">
          <mxGeometry relative="1" as="geometry">
            <mxPoint x="200" y="360" as="targetPoint" />
            <Array as="points">
              <mxPoint x="189" y="710" />
              <mxPoint x="421" y="710" />
            </Array>
          </mxGeometry>
        </mxCell>
        <mxCell id="7e3wXyab55AdMNmQCwJl-7" value="Отправка данных по Bluetooth и запись на FLASH" style="whiteSpace=wrap;html=1;" vertex="1" parent="WIyWlLk6GJQsqaUBKTNV-1">
          <mxGeometry x="129" y="630" width="120" height="60" as="geometry" />
        </mxCell>
      </root>
    </mxGraphModel>
  </diagram>
</mxfile>
